<svg viewBox="0 0 22 34" xmlns="http://www.w3.org/2000/svg"><g id="v1" stroke="none" stroke-width="1" fill="none" fill-rule="evenodd"><g id="bookmark"><path d="M0,0.999142136 C0,0.447331172 0.43945834,0 1.00246167,0 L20.9975383,0 C21.5511826,0 22,0.454924256 22,0.999142136 L22,33.0008579 C22,33.5526688 21.6085042,33.7864568 21.1184183,33.5191372 L11.8815817,28.4808628 C11.3946976,28.2152896 10.6085042,28.2135432 10.1184183,28.4808628 L0.881581739,33.5191372 C0.394697589,33.7847104 0,33.5450757 0,33.0008579 L0,0.999142136 Z" id="bg" fill="#FFC107"></path><path d="M1,0.999142136 L1,0.999142136 L1,33.0008579 C1,32.7887257 0.584598022,32.5420407 0.402729608,32.6412417 L9.63956613,27.6029672 C10.4272506,27.1733211 11.5741899,27.1741068 12.3604339,27.6029672 L21.5972704,32.6412417 C21.4209045,32.5450421 21,32.7936903 21,33.0008579 L21,0.999142136 C21,1.00415749 20.9958505,1 20.9975383,1 L1.00246167,1 C0.99568245,1 1,0.995668816 1,0.999142136 L1,0.999142136 Z M0,0.999142136 C0,0.447331172 0.43945834,0 1.00246167,0 L20.9975383,0 C21.5511826,0 22,0.454924256 22,0.999142136 L22,33.0008579 C22,33.5526688 21.6085042,33.7864568 21.1184183,33.5191372 L11.8815817,28.4808628 C11.3946976,28.2152896 10.6085042,28.2135432 10.1184183,28.4808628 L0.881581739,33.5191372 C0.394697589,33.7847104 0,33.5450757 0,33.0008579 L0,0.999142136 L0,0.999142136 Z" id="border" fill="#595765"></path></g></g></svg>
