<svg version="1.1" xmlns="http://www.w3.org/2000/svg" xmlns:xlink="http://www.w3.org/1999/xlink">
    <path d="M14.636 26.464l-8.965-7.969c-0.826-0.734-0.9-1.998-0.166-2.824s1.998-0.9 2.824-0.166l6.955 6.182 6.889-15.5c0.449-1.009 1.631-1.464 2.64-1.015s1.464 1.631 1.015 2.64l-7.981 17.957c-0.045 0.108-0.1 0.213-0.165 0.314-0.007 0.011-0.015 0.023-0.022 0.034-0.049 0.073-0.104 0.144-0.165 0.212-0.291 0.327-0.665 0.537-1.063 0.624-0.394 0.090-0.833 0.057-1.244-0.125-0.095-0.042-0.186-0.091-0.271-0.146-0.011-0.007-0.022-0.015-0.034-0.022-0.088-0.059-0.17-0.125-0.247-0.195v0z"></path>
</svg>
