<svg viewBox="0 0 24 24" xmlns="http://www.w3.org/2000/svg">
    <path d="M15.053 6.912c-0.324-0.314-0.765-0.512-1.253-0.512-0.994 0-1.8 0.807-1.8 1.801v9c0 0.994 0.806 1.799 1.8 1.799 0.488 0 0.93-0.195 1.253-0.512 2.381-2.314 5.947-5.787 5.947-5.787s-3.566-3.474-5.947-5.789z"></path>
    <path d="M6.053 6.912c-0.324-0.314-0.765-0.512-1.253-0.512-0.994 0-1.8 0.807-1.8 1.801v9c0 0.994 0.806 1.799 1.8 1.799 0.488 0 0.93-0.195 1.253-0.512 2.381-2.314 5.947-5.787 5.947-5.787s-3.566-3.474-5.947-5.789z"></path>
</svg>
