<svg version="1.1" xmlns="http://www.w3.org/2000/svg">
    <path d="M26.5 7.975l-6.263 6.263c-0.683 0.683-1.791 0.683-2.475 0s-0.683-1.791 0-2.475l6.263-6.263h-4.025c-0.966 0-1.75-0.784-1.75-1.75s0.784-1.75 1.75-1.75h8c0.547 0 1.035 0.251 1.356 0.644 0.393 0.321 0.644 0.809 0.644 1.356v8c0 0.966-0.784 1.75-1.75 1.75s-1.75-0.784-1.75-1.75v-4.025zM5.5 24.025l6.263-6.263c0.683-0.683 1.791-0.683 2.475 0s0.683 1.791 0 2.475l-6.263 6.263h4.025c0.966 0 1.75 0.784 1.75 1.75s-0.784 1.75-1.75 1.75h-8c-0.547 0-1.035-0.251-1.356-0.644-0.393-0.321-0.644-0.809-0.644-1.356v-8c0-0.966 0.784-1.75 1.75-1.75s1.75 0.784 1.75 1.75v4.025z"></path>
</svg>
