<?xml version="1.0" encoding="UTF-8" standalone="no"?>
<svg viewBox="0 0 64 64" version="1.1" xmlns="http://www.w3.org/2000/svg" xmlns:xlink="http://www.w3.org/1999/xlink" xmlns:sketch="http://www.bohemiancoding.com/sketch/ns">
    <!-- Generator: Sketch 3.5.2 (25235) - http://www.bohemiancoding.com/sketch -->
    <title>icRecommend64-grey</title>
    <desc>Created with Sketch.</desc>
    <defs>
        <path id="path-1" d="M42.7714863,18.029214 C37.9146107,11.7997431 30.6292973,12.1164959 25.7724218,16.5510345 C25.033332,17.2901242 23.766321,17.2901242 23.0272312,16.5510345 C18.0647714,12.2220801 10.779458,11.7997431 5.92258246,18.029214 C-2.20740492,30.9104927 17.7480186,46.7481304 23.0272312,50.6547477 C23.766321,51.182669 24.8221635,51.182669 25.5612533,50.6547477 C30.9460501,46.7481304 50.9014737,30.9104927 42.7714863,18.029214 L42.7714863,18.029214 Z"></path>
    </defs>
    <g id="iPad-UI-Kit" stroke="none" stroke-width="1" fill="none" fill-rule="evenodd" sketch:type="MSPage">
        <g id="UI-Actions-Icons⚡️" sketch:type="MSArtboardGroup" transform="translate(-557.000000, -2790.000000)">
            <g id="icons" sketch:type="MSLayerGroup" transform="translate(48.000000, 242.000000)">
                <g id="icRecommend64-grey" transform="translate(509.000000, 2548.000000)">
                    <rect id="Container" sketch:type="MSShapeGroup" x="0" y="0" width="64" height="64"></rect>
                    <g id="Shape">
                        <use stroke="#FFF" stroke-width="2.66" fill="#FFF" fill-rule="evenodd" sketch:type="MSShapeGroup" xlink:href="#path-1"></use>
                        <use stroke="none" fill="none" xlink:href="#path-1"></use>
                    </g>
                    <path d="M56.2599523,14.6397119 L56.2599523,14.6397119 C55.8376153,15.0620489 55.732031,15.8011387 56.0487838,16.2234757 C57.7381318,18.3351607 58.6883901,21.0803513 58.6883901,24.0367103 C58.6883901,27.0986536 57.6325476,29.8438442 55.8376153,32.0611135 C55.4152783,32.4834505 55.5208625,33.2225402 55.9431995,33.6448772 L55.9431995,33.6448772 C56.4711208,34.1727985 57.3157948,34.1727985 57.8437161,33.539293 C59.9554011,30.8996867 61.2224121,27.6265749 61.2224121,23.9311261 C61.2224121,20.4468458 60.0609853,17.2793182 58.1604688,14.7452962 C57.6325476,14.2173749 56.7878735,14.2173749 56.2599523,14.6397119 L56.2599523,14.6397119 Z" id="Shape" fill="#FFF" sketch:type="MSShapeGroup"></path>
                    <path d="M51.7965708,16.7847566 L51.7965708,16.7847566 C51.3742338,17.2070936 51.2686496,17.8405991 51.5854023,18.2629361 C52.6412448,19.8466999 53.2747504,21.8528006 53.2747504,23.9644857 C53.2747504,26.0761707 52.6412448,27.9766872 51.5854023,29.6660353 C51.2686496,30.0883723 51.3742338,30.7218778 51.7965708,31.1442148 L51.7965708,31.1442148 C52.3244921,31.672136 53.2747504,31.5665518 53.6970874,30.9330463 C55.0696826,28.9269455 55.8087724,26.4985077 55.8087724,23.9644857 C55.8087724,21.3248794 55.0696826,19.0020258 53.6970874,16.9959251 C53.2747504,16.3624195 52.3244921,16.2568353 51.7965708,16.7847566 L51.7965708,16.7847566 Z" id="Shape" fill="#FFF" sketch:type="MSShapeGroup"></path>
                    <path d="M47.799704,21.0045557 C47.4829513,21.3213085 47.2717828,21.7436455 47.377367,22.2715668 C47.5885355,22.9050723 47.6941198,23.644162 47.6941198,24.3832518 C47.6941198,25.2279258 47.5885355,25.9670156 47.2717828,26.7061053 C47.1661985,27.1284423 47.2717828,27.6563636 47.6941198,27.9731164 L47.6941198,27.9731164 C48.3276253,28.5010376 49.3834678,28.1842849 49.5946363,27.3396108 C49.9113891,26.3893526 50.1225576,25.3335101 50.1225576,24.2776675 C50.1225576,23.3274093 50.0169733,22.377151 49.7002206,21.532477 C49.5946363,20.687803 48.5387938,20.3710502 47.799704,21.0045557 L47.799704,21.0045557 L47.799704,21.0045557 Z" id="Shape" fill="#FFF" sketch:type="MSShapeGroup"></path>
                </g>
            </g>
        </g>
    </g>
</svg>
