<svg version="1.1" xmlns="http://www.w3.org/2000/svg">
    <path d="M7.795 15.084c0.46-4.679 4.406-8.334 9.205-8.334 5.109 0 9.25 4.141 9.25 9.25s-4.141 9.25-9.25 9.25c-0.966 0-1.75 0.784-1.75 1.75s0.784 1.75 1.75 1.75c7.042 0 12.75-5.708 12.75-12.75s-5.708-12.75-12.75-12.75c-6.758 0-12.288 5.258-12.723 11.906l-0.217-0.217c-0.586-0.586-1.536-0.586-2.121 0s-0.586 1.536 0 2.121l3 3c0.293 0.293 0.677 0.439 1.061 0.439s0.768-0.146 1.061-0.439l3-3c0.586-0.586 0.586-1.536 0-2.121s-1.536-0.586-2.121 0l-0.145 0.145z"></path>
</svg>
