<svg version="1.1" xmlns="http://www.w3.org/2000/svg">
    <path d="M14.667 25l-5.067 3.8c-0.659 0.494-1.6 0.024-1.6-0.8v-3h-4.009c-1.1 0-1.991-0.898-1.991-1.991v-16.018c0-1.099 0.9-1.991 1.991-1.991h24.017c1.1 0 1.991 0.898 1.991 1.991v16.018c0 1.099-0.9 1.991-1.991 1.991h-13.342zM23.5 10h-15c-0.828 0-1.5 0.672-1.5 1.5s0.672 1.5 1.5 1.5h15c0.828 0 1.5-0.672 1.5-1.5s-0.672-1.5-1.5-1.5zM23.5 17h-15c-0.828 0-1.5 0.672-1.5 1.5s0.672 1.5 1.5 1.5h15c0.828 0 1.5-0.672 1.5-1.5s-0.672-1.5-1.5-1.5z"></path>
</svg>
