<svg version="1.1" xmlns="http://www.w3.org/2000/svg" xmlns:xlink="http://www.w3.org/1999/xlink">
    <path d="M7.5 12l-0.315 0.112 8-6.5c0.327-0.266 0.815-0.033 0.815 0.388v20c0 0.421-0.489 0.654-0.815 0.388l-8-6.5 0.315 0.112h-3.5c-0.276 0-0.5-0.224-0.5-0.5v-7c0-0.276 0.224-0.5 0.5-0.5h3.5zM20.369 21.036c-0.572 0.204-1.201-0.096-1.405-0.668s0.096-1.201 0.668-1.405c1.311-0.466 2.268-1.482 2.268-2.964s-0.958-2.498-2.268-2.964c-0.572-0.204-0.871-0.833-0.668-1.405s0.833-0.871 1.405-0.668c2.1 0.747 3.732 2.477 3.732 5.036s-1.631 4.29-3.732 5.036z"></path>
</svg>
